PathFileType	4	(X/Y/Z)	Patient4_TMGait_0pt6_02_right_09.trc.trc
DataRate	CameraRate	NumFrames	NumMarkers	Units	OrigDataRate	OrigDataStartFrame	OrigNumFrames
78.212290502793	78.212290502793	4	33	mm	78.212290502793	124	       141
Frame#	Time	Sacral			L.Shoulder			Chest			R.Shoulder			Neck			R.ASIS			L.ASIS			R.Thigh.Superior			R.Thigh.Lateral			R.Thigh.Inferior			R.Patella			L.Thigh.Superior			L.Thigh.Lateral			L.Thigh.Inferior			L.Patella			L.Shank.Superior			L.Shank.Lateral			L.Shank.Inferior			R.Shank.Superior			R.Shank.Lateral			R.Shank.Inferior			R.Heel			R.Midfoot.Superior			R.Midfoot.Lateral			R.Toe			L.Heel			L.Midfoot.Lateral			L.Midfoot.Superior			L.Toe			L.Elbow			L.Wrist			R.Elbow			R.Wrist			
		X1	Y1	Z1	X2	Y2	Z2	X3	Y3	Z3	X4	Y4	Z4	X5	Y5	Z5	X6	Y6	Z6	X7	Y7	Z7	X8	Y8	Z8	X9	Y9	Z9	X10	Y10	Z10	X11	Y11	Z11	X12	Y12	Z12	X13	Y13	Z13	X14	Y14	Z14	X15	Y15	Z15	X16	Y16	Z16	X17	Y17	Z17	X18	Y18	Z18	X19	Y19	Z19	X20	Y20	Z20	X21	Y21	Z21	X22	Y22	Z22	X23	Y23	Z23	X24	Y24	Z24	X25	Y25	Z25	X26	Y26	Z26	X27	Y27	Z27	X28	Y28	Z28	X29	Y29	Z29	X30	Y30	Z30	X31	Y31	Z31	X32	Y32	Z32	X33	Y33	Z33	

124	11.892642857143	760.207259492382	996.020403798671	436.155112766149	957.836126451658	1426.866781207149	282.457945022726	1042.851454146161	1352.328205770228	450.419003809969	941.292004903029	1423.089029464654	615.424542924694	926.065909471175	1482.875834874355	436.211766812002	975.126026675330	929.980483210918	574.307564843279	984.694439319832	948.225561188678	298.830872421990	1044.311481186496	749.366187392705	547.937067780969	986.741693764030	627.878005051640	610.371791559764	1075.409605532658	589.587000991112	531.174896352444	1102.377042185953	509.623201324557	541.312426608400	976.483043329247	719.032320519336	327.325567381173	855.474160282851	629.539698163504	265.294594395309	908.794683690857	533.613168710411	331.979172190753	890.660996184187	465.550908405646	341.394512672303	851.027733703785	402.925735770593	334.707295130331	740.843453791915	306.166774085589	286.496217886580	769.892158634783	188.739932537475	359.722829265178	1093.015145879966	421.608537749240	549.424690625391	1046.201914144900	303.649663993835	608.508652676240	1120.289089165662	223.662579646064	554.224465964039	1034.565937791015	41.576724925620	520.442284686180	1199.431057571010	109.250283871742	559.469125950675	1118.833749079150	38.028783387104	594.014143786726	1322.854011445558	67.393752638358	583.632246261736	622.792803352917	44.173302697981	407.356122024313	695.031901701130	36.545905559288	326.149936548868	780.730663181878	95.765093922140	349.658747500587	906.911338464673	39.358424592941	319.210819622237	995.053353072559	1088.569772426230	136.595256716015	1230.204780194937	995.977818223134	189.187995785674	818.349622255773	1090.280744504671	701.838941608807	842.521292812605	829.323656747997	702.142720311945	
125	11.905428571429	762.345412700283	994.600161408071	439.283456753477	956.326858805836	1425.855534252675	284.380118769905	1042.960976895337	1352.152051418389	451.929737804222	941.850582222101	1422.247317558921	617.556726698916	925.553230723070	1481.999000589843	438.251015841957	978.431654218402	928.890241374558	576.030521577739	986.259264345203	947.401592598856	300.506616922115	1048.161074847263	748.467862657836	548.807104959194	989.533473907642	626.660165969361	610.451943439763	1078.349355106432	588.851590500390	531.503891350219	1103.889946809000	507.914988916574	540.806791116514	977.921946568877	718.008492438650	328.327404086654	856.465495512277	628.818237811940	267.047972149329	910.118756576839	532.455393111561	333.215434619570	891.724465248970	463.480717699845	342.204380012824	850.235211436799	401.487762115788	335.554774582747	737.722968427907	307.285943580779	287.476916328772	764.640371872869	188.874024357170	359.813357632909	1093.624946670882	419.070676036140	548.740341647232	1044.899715966780	301.936092369873	607.718142707588	1116.775375106254	220.733478993675	552.749155019202	1026.680499952930	41.378513318087	519.594811824548	1192.852931195090	105.974114056087	557.350183204143	1110.817667551840	37.370144899159	593.263306436855	1315.617083904000	61.925409414549	581.976855087439	615.200971327991	46.219850270545	407.068667831446	687.441783649789	37.323448866474	326.041485146334	773.744139770225	95.990635899330	349.259540551898	899.268605151049	39.178361581702	319.106791672956	994.492333129986	1086.390570769822	140.465174871761	1226.825089897308	984.510975376186	191.247224623124	824.421783225702	1087.399808406982	705.292405601140	855.288617562331	827.096218001620	706.408555417629	
126	11.918214285714	764.443724262486	993.533436728567	442.526358088487	954.956205173619	1425.166901887164	286.473707639985	1043.179685200355	1352.238052375457	453.593998289701	942.613015982920	1421.721226115777	619.856007573426	925.202041104439	1481.461794195733	440.468784664817	981.736536472863	928.225270070675	577.836306320344	987.799554923483	946.998586689003	302.316372219059	1052.284467934155	748.229023164102	549.506796772255	992.919860733175	626.074883144225	610.493611545031	1081.823017897468	588.776013079619	531.695002502571	1105.955581590745	506.632738013018	540.235411499494	979.862617140807	717.323136705493	329.421798527715	858.356989181803	628.057270330763	268.922706846030	912.800254847926	531.382588396626	334.470662635581	894.245817500229	461.291565825305	342.869141176538	850.607121293902	399.988149018385	336.337467720660	735.503980509482	308.785665584599	288.540134446180	759.975902966849	189.291776802230	359.822733055894	1094.550762074724	416.972021536071	548.056655083115	1043.779524704243	300.798012920223	607.167151052880	1113.008315026750	218.150221204864	551.332096225004	1018.078140938969	41.355950182846	518.899165587109	1185.489144232354	103.149595792609	555.424738740917	1102.129293245244	36.924449610613	592.659531743028	1307.683650337647	57.089809814708	580.535300402781	607.800858300266	49.159915138354	406.761111959622	679.926588604261	38.562041664096	325.921828592003	767.080503963974	96.325863556551	348.734573158189	891.592536933836	38.969422448400	319.017056375197	993.431961108815	1084.379433668758	144.679426603225	1222.205876643655	972.289577529321	192.856149784236	830.901272407297	1084.834451856120	708.914569936140	868.813584105251	825.396265501192	710.936727574818	
127	11.931000000000	766.488509730509	992.847233890660	445.868006342386	953.758129156680	1424.851006615553	288.720424623735	1043.510864437139	1352.606288497856	455.396858947419	943.597323387546	1421.562381969239	622.291258600527	925.016174210850	1481.301516309170	442.842839415403	984.994260716826	928.030488929856	579.722096032855	989.279370162583	947.068446378112	304.253340242238	1056.472547615742	748.543300988897	550.062888830453	996.685588218363	626.079223014041	610.586936707756	1085.518070013597	589.212412516018	531.776953577265	1108.292753761733	505.735434598941	539.688324185331	982.321910926688	717.037168291429	330.616223488169	861.219738603476	627.269032457976	270.860939367437	916.957821293314	530.429200659239	335.661367555516	898.358181465272	459.031282747707	343.275548764983	852.275188384800	398.472028813694	336.970131743322	734.326897155879	310.749174529193	289.639138657496	756.039528020275	190.093701667739	359.704123470828	1095.591796532232	415.334777345332	547.471736308808	1042.803307666024	300.192831769113	606.939137476302	1109.106445634778	215.998994778147	550.090965248356	1009.248419413620	41.431457271835	518.402484188018	1177.727518868187	100.913125126919	553.831002232671	1093.257558094403	36.664528868911	592.241692721139	1299.472646054080	53.181129291205	579.398176391486	600.719437958457	53.231531958678	406.432915518925	672.558062747587	40.438207331080	325.791101356920	760.844646753406	96.822708430497	348.072016110824	883.879816257864	38.713886112732	318.952554431638	991.873486555348	1082.607591528116	149.240961504468	1216.198679340831	959.477644851639	194.006156148687	837.777648742964	1082.673900118522	712.700527473038	883.059592481509	824.353085946383	715.658879143361	
